<?xml version="1.0" encoding="iso-8859-1"?>
<!-- Generator: Adobe Illustrator 19.0.0, SVG Export Plug-In . SVG Version: 6.00 Build 0)  -->
<svg version="1.1" id="Capa_1" xmlns="http://www.w3.org/2000/svg" xmlns:xlink="http://www.w3.org/1999/xlink" x="0px" y="0px"
	 viewBox="0 0 509.677 509.677" style="enable-background:new 0 0 509.677 509.677;" xml:space="preserve">
<g>
	<path style="fill:#FDBC4B;" d="M283.846,402.158c-19.344,0-38.672,0-58.016,0c-12.464-65.36-12.464-132.496,0-197.856
		c19.344,0,38.672,0,58.016,0C296.31,269.662,296.31,336.798,283.846,402.158z"/>
	<path style="fill:#FDBC4B;" d="M501.126,47.326H274.55v163.632h46.336c91.248,0,169.984-64.016,188.608-153.344
		C510.598,52.302,506.55,47.326,501.126,47.326z M327.83,182.574h-24.912V75.694h172.784
		C454.854,138.558,395.254,182.574,327.83,182.574z"/>
	<path style="fill:#FDBC4B;" d="M0.182,57.614l1.424,6.8c17.792,85.376,93.04,146.544,180.24,146.544h53.28V47.326H8.55
		C3.126,47.326-0.922,52.302,0.182,57.614z M206.758,75.694v106.88h-24.912c-67.424,0-127.024-44.016-147.872-106.88H206.758z"/>
</g>
<path style="fill:#FFCC5B;" d="M423.958,12.302V134.11c0,93.36-75.76,169.12-169.12,169.12c-93.504,0-169.12-75.76-169.12-169.12
	V12.302H423.958z"/>
<path style="fill:#6F7070;" d="M368.79,459.294H140.886c-10.512,0-19.04,8.528-19.04,19.04s8.528,19.04,19.04,19.04h227.92
	c10.512,0,19.04-8.528,19.04-19.04S379.318,459.294,368.79,459.294z"/>
<path style="fill:#787878;" d="M324.694,421.198H184.966c-21.04,0-38.096,17.056-38.096,38.096h215.92
	C362.79,438.254,345.734,421.198,324.694,421.198z"/>
<path style="fill:#6F7070;" d="M280.15,383.118h-50.624c-21.04,0-38.096,17.056-38.096,38.096h126.8
	C318.246,400.158,301.19,383.118,280.15,383.118z"/>
<path style="opacity:0.3;fill:#EFA73F;enable-background:new    ;" d="M225.814,300.574h43.776
	c11.616-0.208,20.912-9.728,20.912-21.552s-9.712-21.536-21.536-21.536H192.55c-10.144,0-18.368-8.24-18.16-18.16v-1.696
	c-0.64-9.712,7.184-18.16,17.104-18.16h93.136c11.824,0,22.176-8.656,23.024-20.272c0.416-12.464-9.296-22.8-21.744-22.8h-86.16
	c-9.92,0-18.16-8.24-18.16-18.16l0.208-1.264v-0.224c-0.208-10.56,8.448-19.216,19.008-19.216h110.032
	c11.824,0,22.176-8.656,23.024-20.48c0.416-12.464-9.296-22.8-21.744-22.8H196.822c-10.56,0-18.16-8.656-18.16-19.216
	c0,0,0,0,0-0.208s0-0.208,0-0.208c0-10.336,7.6-19.216,18.16-19.216h75.808c11.616,0,21.968-8.656,22.592-20.272
	c0.64-12.672-9.296-22.816-21.536-22.816H85.718v121.808C85.718,217.566,146.198,286.782,225.814,300.574z"/>
<circle style="fill:#ED6362;" cx="254.838" cy="138.382" r="85.408"/>
<path style="fill:#E95454;" d="M296.102,115.63h-78.048c-7.152,0-12.288-5.856-12.288-13.008c0,0,0,0,0-0.144s0-0.144,0-0.144
	c0-7.008,5.152-13.008,12.288-13.008h51.312c7.856,0,14.864-5.856,15.296-13.728c0.432-8.576-6.288-15.44-14.576-15.44h-49.344
	c-30.16,13.168-51.296,43.2-51.296,78.224c0,28.16,13.808,52.928,34.832,68.496c1.904-3.744,5.648-6.48,10.208-6.48h63.04
	c8,0,15.008-5.856,15.584-13.728c0.288-8.432-6.288-15.44-14.72-15.44h-58.32c-6.72,0-12.288-5.584-12.288-12.288l0.144-0.864
	v-0.128c-0.144-7.152,5.712-13.008,12.864-13.008h74.48c8,0,15.008-5.856,15.584-13.872
	C311.11,122.638,304.534,115.63,296.102,115.63z"/>
<path style="fill:#FFFFFF;" d="M254.214,76.958c-2.672,7.456-7.6,13.984-14.768,19.568c-4.416,3.44-8.576,5.968-12.592,8.048v21.312
	c8.464-3.696,16.304-8.272,22.944-14.48v88.384h23.456V76.958H254.214z"/>
<g>
</g>
<g>
</g>
<g>
</g>
<g>
</g>
<g>
</g>
<g>
</g>
<g>
</g>
<g>
</g>
<g>
</g>
<g>
</g>
<g>
</g>
<g>
</g>
<g>
</g>
<g>
</g>
<g>
</g>
</svg>
